# xmcd CD database file
#
# Track frame offsets:
#	150
#	41886
#	79240
#	119899
#	147215
#	191676
#	221818
#	255262
#	285637
#
# Disc length: 4444 seconds
#
# Revision: 4
# Processed by: cddbd v1.5.2PL0 Copyright (c) Steve Scherf et al.
# Submitted via: CDex 1.70beta2
#
DISCID=8e115a09
DTITLE=Lars Jansson - Bohuslän Big Band - One Poem, One Painting
DYEAR=2003
DGENRE=Jazz
TTITLE0=500 Years
TTITLE1=This And That
TTITLE2=The Man With The Umbrellas
TTITLE3=No Doubt
TTITLE4=3 Heartbeats
TTITLE5=Red Leaves
TTITLE6=One Poem, One Painting
TTITLE7=Presence
TTITLE8=Marionett
EXTD=YEAR: 2003
EXTT0=
EXTT1=
EXTT2=
EXTT3=
EXTT4=
EXTT5=
EXTT6=
EXTT7=
EXTT8=
PLAYORDER=
